<svg xmlns="http://www.w3.org/2000/svg" version="1.1" xmlns:xlink="http://www.w3.org/1999/xlink" xmlns:svgjs="http://svgjs.com/svgjs" width="1440" height="590" preserveAspectRatio="none" viewBox="0 0 1440 590"><g mask="url(&quot;#SvgjsMask1098&quot;)" fill="none"><rect width="1440" height="590" x="0" y="0" fill="rgba(24, 106, 59, 1)"></rect><path d="M0,349.733C75.83,352.063,164.104,394.807,222.972,346.951C282.977,298.171,242.992,195.982,275.465,125.8C308.201,55.05,416.435,18.686,410.838,-59.07C405.34,-135.446,306.612,-164.899,250.767,-217.291C201.61,-263.409,166.233,-327.064,102.33,-348.505C37.494,-370.259,-35.852,-362.514,-98.18,-334.37C-156.688,-307.951,-185.068,-245.211,-229.351,-198.734C-276.376,-149.379,-355.595,-119.987,-366.548,-52.702C-377.493,14.529,-307.698,65.743,-282.722,129.115C-255.834,197.338,-272.146,288.4,-214.335,333.512C-156.681,378.501,-73.095,347.487,0,349.733" fill="#104627"></path><path d="M1440 1199.888C1561.515 1219.704 1698.4859999999999 1219.5549999999998 1798.001 1147.0610000000001 1896.478 1075.3229999999999 1900.963 934.404 1954.606 825.013 2010.192 711.6610000000001 2133.7309999999998 617.759 2119.05 492.367 2104.373 367.005 1975.885 291.419 1882.226 206.80900000000003 1798.946 131.575 1711.687 62.89099999999996 1605.018 27.999000000000024 1495.983-7.66700000000003 1375.78-34.68399999999997 1268.542 6.067999999999984 1163.7440000000001 45.89300000000003 1111.917 157.38099999999997 1039.452 242.923 967.9100000000001 327.375 871.852 396.956 846.198 504.624 819.625 616.151 841.289 737.855 897.751 837.637 952.069 933.631 1058.205 980.105 1149.9189999999999 1041.375 1243.437 1103.85 1329 1181.787 1440 1199.888" fill="#208e4f"></path></g><defs><mask id="SvgjsMask1098"><rect width="1440" height="590" fill="#ffffff"></rect></mask></defs></svg>